<svg xmlns:mapsvg="http://mapsvg.com"
   xmlns:dc="http://purl.org/dc/elements/1.1/"
   xmlns:cc="http://creativecommons.org/ns#"
   xmlns:rdf="http://www.w3.org/1999/02/22-rdf-syntax-ns#"
   xmlns:svg="http://www.w3.org/2000/svg"
   xmlns="http://www.w3.org/2000/svg"
   version="1.1"
   id="svg2"
   viewBox="120 700 650 650"
   preserveAspectRatio="xMidYMid meet"
  >
  <metadata
     id="metadata89">
    <rdf:RDF>
      <cc:Work
         rdf:about="">
        <dc:format>image/svg+xml</dc:format>
        <dc:type
           rdf:resource="http://purl.org/dc/dcmitype/StillImage" />
        <dc:title></dc:title>
      </cc:Work>
    </rdf:RDF>
  </metadata>
  <defs
     id="defs87" />
   <path fill="#808080" id="PH-SUR" title="Surigao del Sur"
      d="m 652.55,855.00341 2.26,1.56819 0.67,0.30157 -0.92,0.84442 -1.71,-0.44232 -1.92,1.12588 -0.1,1.14598 1.66,1.70893 1.02,-0.44232 1.2,2.29197 2.03,-0.97509 -0.33,-1.19624 1.14,-0.74389 -0.05,1.74913 -1.29,0.87457 1.21,2.23165 2.46,5.10666 -0.96,0.0804 3.07,2.4327 5.07,-1.64861 3.61,-3.79984 2.82,0.11059 -1.15,1.38724 0.45,1.28672 -1.73,4.98602 0.42,3.08612 -1.52,4.19188 2.28,2.13112 0.54,-1.12588 2.92,5.0564 2.83,2.91522 0.95,0.33172 1.33,1.52798 0.24,1.56819 -1.43,0.65341 2.52,0.573 -1.33,2.77447 2.02,2.95544 -1.45,0.26136 0.89,0.85446 -1.96,1.44756 0.2,1.58828 -3.57,0.77405 -1.15,0.75394 -0.08,1.6486 -1.81,0.61321 -0.02,1.49781 2.38,1.16609 -4.19,-0.18094 -5.97,3.47816 -1.61,2.85489 3.08,2.12108 -0.83,1.24651 2.16,2.62369 1.45,-0.0804 -0.26,-0.77403 4.29,1.34702 0.44,-0.69361 -2.82,-1.26662 1.61,-0.6132 3.87,0.55289 1.95,1.54808 1.84,-0.69363 1.69,0.64336 1.21,-1.35708 0.68,0.83436 -0.82,1.34703 2.86,0.18094 0.4,1.74913 -0.97,0.73383 1.01,1.09573 -2.5,-0.34179 -1.07,3.17659 1.85,-0.18095 0.5,1.56818 -1.73,2.97554 -2.72,0.94493 1.34,1.63856 -0.79,0.30157 0.25,1.17614 3.31,0.30157 0.99,1.32693 -5.44,4.69451 2.14,3.21679 3.37,-1.44756 3.59,-3.17658 1.21,0.18094 -2.04,9.64033 1.73,1.05552 -2.67,3.18663 0.52,2.99563 -1.17,0.30158 0.67,1.82955 2.46,-0.25131 -3.13,2.50307 -1.41,0 -1.93,3.2369 0,0 -0.7,-6.6648 0,0 -0.39,-3.69931 -3.31,-1.0153 4.35,-4.26226 -4.81,0.51268 -4.43,-4.23209 -1.88,-0.26136 1.04,-3.76969 3.67,-4.20193 1.38,-0.0302 0.03,-1.74914 -1.69,-2.13112 0.86,-4.65429 -1.47,2.13112 -5.79,0.38199 -5.89,-0.71373 -2.79,-2.73427 3.51,-3.92046 -4.81,0.46241 -1.25,-7.63988 -1.8,-0.14074 -0.16,-1.06556 -0.38,-4.67441 1.71,-1.16608 -0.26,-0.84441 -3.11,-4.72466 -1.64,-5.72991 -3.57,-4.11147 -1.46,-14.27451 -3.16,-5.50876 -5.76,-6.6849 0,0 -0.54,-6.56427 0,0 12.34,-12.53544 0,0 0.05,1.4375 z" />
   <path fill="#808080" id="PH-TAW" title="Tawi-Tawi"
      d="m 180.94,1199.1801 -1.45,7.0669 -0.56,-2.5432 1.03,-1.8798 -1.39,-1.1963 2.42,-3.1766 -0.05,1.729 z m 29.44,-4.2622 2.96,2.0406 -3.77,-0.1608 -0.54,-1.4375 1.35,-0.4423 z m -26.9,-6.6146 2.82,5.6998 0.89,5.4786 -1.83,6.6849 -1.67,1.9201 0.5,-10.8266 -1.53,-8.1022 0.82,-0.8546 z m 25.13,-0.8243 3.63,1.8798 0.02,2.5635 -3.61,0.5428 -0.99,-4.3024 0.95,-0.6837 z m 15.72,-6.1621 -0.9,3.4781 -1.41,0.2916 0.24,-3.5184 2.07,-0.2513 z m -17.52,-1.5381 -0.42,1.3772 -2.56,-0.201 0.32,-1.3973 2.66,0.2211 z m 24.98,0.081 1.12,0.6735 -0.21,1.156 -2.58,-2.0406 1.67,0.2111 z m 7.39,0.3217 -0.7,0.6936 -2.11,-0.573 1.76,-1.5682 1.4,0.764 -0.35,0.6836 z m -30.01,-6.8056 0.52,4.3628 -1.15,0.5227 -0.75,-0.955 -0.4,1.6788 -3.17,0.4624 1.94,-4.5839 3.01,-1.4878 z m 36.27,-0.3317 0.64,1.4777 -1.18,0.8444 -2.56,-0.1408 3.1,-2.1813 z m 2.62,-1.7793 -0.58,1.9603 -1.1,-0.3821 0.15,-2.1814 1.14,-0.5026 0.39,1.1058 z m -2.6,-3.4581 -2.56,1.5381 -0.45,-1.0153 -1.55,0.3519 1.66,-5.2675 2.83,2.4326 0.07,1.9602 z m 3.75,-4.5336 -1.54,5.4083 -0.66,-2.9454 2.2,-2.4629 z m -10.97,-6.6447 0.34,3.438 2.8,1.8798 -1.7,3.086 0.65,3.7496 -1.49,2.5433 0.34,1.6586 -4.17,-1.4776 1.98,-2.8247 -1.72,-0.7339 -0.85,2.1813 -2.6,-1.6787 -1.81,2.5935 -0.77,-0.7036 -0.89,-0.5429 -1.09,0.4222 -0.17,-1.2866 -1.24,-0.081 -3.19,1.9301 0.3,1.719 -0.66,0.6232 -2.17,3.3274 -2.2,-0.7842 -3,1.7291 -0.6,0.3418 -1.49,0.9047 -2.93,-0.6434 0.35,-4.0109 -1.02,-1.0152 1.38,-1.7593 1.99,0.2011 6.09,-3.0861 2.75,-3.5184 3.65,0.3619 2.9,-2.7745 0.56,-0.7439 6.85,-4.5638 2.83,-0.4624 z m 7.73,-2.7141 1.26,0.3417 -1.68,1.2365 -1.74,-0.5026 2.16,-1.0756 z m 20.18,-1.0656 -1.75,-0.8545 0.7,-1.8195 1.93,1.6889 -0.88,0.9851 z m -151.63,-120.1875 1.53,1.5381 -1.27,2.6136 1.89,2.0909 -7.63,-1.8194 -0.04,-1.337 -1.59,-0.9751 3.31,-1.1561 1.69,0.563 2.11,-1.518 z" />
   <path fill="#808080" id="PH-ZAN" title="Zamboanga del Norte"
      d="m 469.2,909.91004 3.18,0.8042 1.13,2.40255 3.62,-1.30682 0.47,1.37719 -1.63,1.84965 0.22,1.05551 1.75,1.52798 1.57,-0.75394 0.11,0.89467 1.36,-0.14073 0,0 -0.37,29.74528 0,0 -12.14,0.0403 -2.46,-1.23646 -10.72,-0.56294 -0.55,9.76096 -1.9,4.02099 0,4.0612 -6.47,-0.18095 -8.39,6.15212 -3.37,-0.31162 0,0 -11.8,-1.8195 -6.56,1.00525 -8.08,3.81994 -7.26,6.06164 -6.8,3.30727 -5.94,8.84618 -3.35,7.19757 -0.81,5.04631 0,0 -3.6,6.9965 -0.24,6.6346 -1.47,4.021 -5.35,5.1167 -12.38,0.2514 0,0 5.24,-7.4992 2.43,-0.955 0.37,-1.2565 3.71,-1.1359 0.12,-1.3773 -2.02,-0.9549 -0.54,-2.3322 1.99,-3.056 -0.15,-3.4078 2.56,-3.6187 -1.21,-2.00054 2.06,-0.10053 2.99,-3.59878 -0.57,-1.11583 -0.91,0.58305 -1.26,-1.08567 2.1,-3.19669 0.05,-2.02055 -1.34,-4.02099 -2.27,-1.00525 1.31,-1.93007 0.61,1.00524 0.91,-0.59309 -0.33,-1.46766 0.12,-1.75918 1.47,-0.39205 1.35,-3.83 4.81,-3.64905 -0.02,-3.81994 8.65,-5.6897 8.47,-2.48296 3.51,0.53278 5.32,-1.32692 3.27,-2.19145 2.38,-3.59879 1.78,3.0258 2.46,0.65341 6.78,-0.65341 3.35,-1.90997 3.87,0.0201 6.05,-4.94582 -0.08,-2.62369 -2.04,-0.79414 -2.2,-3.39774 3.37,-1.48777 -0.21,-6.33306 2.07,-1.05551 1.62,-4.54372 2.39,-1.8396 8.63,-1.29677 6.29,1.54808 2.18,-0.54284 2.25,-3.18663 1.43,-5.28761 1.48,-0.6333 1.6,1.36713 1.58,-0.59309 0.43,-2.15123 -1.64,-0.93488 -0.28,-0.62325 -1.12,-1.52798 0.01,-1.57824 1,-0.0101 z" />
   <path fill="#808080" id="PH-ZSI" title="Zamboanga Sibugay"
      d="m 387.8,1036.33 0.61,0.7439 -0.46,2.2819 -3.14,-0.5227 0.5,1.0655 -2.72,2.2618 1.07,-2.7644 -0.57,-0.6836 1.21,-1.5179 1.37,0.5931 2.13,-1.4576 z m 48.36,-29.3632 0.67,-0.5328 -1.17,-1.3773 -2.24,-1.0555 -0.88,1.0354 0.28,3.5486 -0.93,0.7137 -3,-4.7951 -2.52,0.8947 -1.07,5.6193 1.61,0.5932 -0.32,3.0056 1.85,1.4174 1.17,-2.2517 3.83,-0.8545 1.39,-2.1109 2.24,0.7337 -1.83,-2.3723 3.67,0.6132 -2.75,-2.8247 z m 10.76,-29.93636 -12.31,-1.56819 0,-6.34311 -11.8,-1.8195 -6.56,1.00525 -8.08,3.81994 -7.26,6.06165 -6.8,3.30726 -5.94,8.84618 -3.35,7.19757 -0.81,5.04631 -3.6,6.9965 -0.24,6.6347 -1.47,4.021 -5.35,5.1167 -12.38,0.2513 -0.28,5.0464 2.93,8.2429 12.37,5.5893 3.09,-1.3973 0.44,-1.1761 2.06,-2.1513 1.98,-6.1421 0.06,-0.8746 -0.58,-1.4978 3.77,-3.086 -0.06,-1.317 -1.1,-0.1407 1.38,-2.0607 -0.96,-2.1814 1.33,-0.4021 -0.18,-0.6736 0.29,-1.7089 0.96,-0.2814 0.78,-6.5744 2.02,-1.1157 0.77,0.5227 -0.24,1.6385 1.09,-0.5127 3.82,-5.5691 -3.54,-0.5126 0.94,-4.785 -0.1,-0.1408 3.42,-1.8295 1.36,-1.02537 1.9,-2.24166 1.35,-0.30158 1.3,0.0403 0.16,-1.76924 1.37,-1.25656 -3.96,0.88462 -1.28,-0.34179 -0.19,-1.14597 4.28,-3.24696 -0.55,-1.50786 1.97,-2.7946 1.16,-0.19099 1.28,-3.05596 5.55,-1.75918 0.34,-1.25656 1.15,0.4021 1.29,-1.31688 1.03,1.68882 1.47,-1.63856 1.9,0.34179 1.89,2.49301 1.65,-0.93488 3.25,1.29677 0.54,2.29196 -1.45,-0.91477 -0.2,1.54809 -1.11,2.15122 1.01,2.68402 -0.69,1.70892 0.16,1.66871 1.68,0.89467 0.78,2.94537 -0.76,1.27667 -0.98,-1.71897 -0.74,0.49257 -0.66,3.80987 0.12,1.2163 1.39,-1.3772 1.32,0.7841 -0.27,3.2671 1.32,-0.8947 0.69,0.7639 2.39,-2.1009 -0.01,-1.6084 -1.37,-0.6434 2.07,-0.99517 0.34,-2.27177 1.02,-0.33173 1.24,0.54284 2.16,4.21193 1.65,-0.5529 1.38,2.1613 0.86,-1.5984 -0.54,-1.49781 2.84,-5.74992 -0.62,-3.49826 2.26,-0.0201 -0.32,-1.94013 0.5,-0.56294 0.1,-1.3973 1.64,0.22115 0.95,-2.0708 -0.87,-7.74041 z" />
   <path fill="#808080" id="PH-AGN" title="Agusan del Norte"
      d="m 618.78,857.57685 2.66,-1.2063 5.23,-0.18094 9.07,1.67876 3.9,3.27711 0.53,4.88551 0,0 0.54,6.56426 0,0 0.89,5.24739 -1.51,6.6648 -3.69,6.44363 -1.87,5.59924 0.09,3.19668 -2.3,4.13157 2.54,8.11235 -12.9,-0.191 -4.31,2.98559 -14.17,0.0502 0,0 -0.78,-14.35494 1.74,-1.39729 -2.64,-3.60884 1.24,-2.47291 -2.22,-9.93184 0,0 1.02,0.40209 1.29,4.14162 3.04,2.82474 3.77,0.11058 0.04,1.58829 0.62,-1.53803 6.32,1.05551 6.7,-2.95542 -0.61,-0.89467 1.72,-3.24695 -1.15,-5.11671 0.8,-3.83 -1.85,-3.71941 0.03,-3.70937 -3.18,-6.53411 z" />
   <path fill="#808080" id="PH-AGS" title="Agusan del Sur"
      d="m 640.71,872.59525 5.76,6.6849 3.16,5.51881 1.45,14.27452 3.57,4.11146 1.64,5.72992 3.11,4.72466 0.26,0.84441 -1.71,1.16608 0.38,4.6744 0.16,1.07562 1.8,0.14073 1.25,7.63989 4.81,-0.46242 -3.51,3.92047 2.79,2.73427 5.89,0.72378 5.78,-0.38199 1.48,-2.13113 -0.86,4.65429 1.69,2.13113 -0.02,1.74913 -1.38,0.0302 -3.67,4.20194 -1.04,3.76967 1.88,0.26137 4.43,4.2321 4.81,-0.50263 -4.35,4.26225 3.31,1.0153 0.39,3.69932 0,0 -13.67,0.0703 0,0 -6.85,2.99564 -1.65,1.75918 -3.46,-2.02054 -1.25,-2.6036 -22.18,0 0,0 -21.31,0.92483 0,0 -0.46,-2.93532 0.91,-3.79984 -1.42,-1.63856 0.28,-3.85009 -1.42,-3.07606 0.79,-3.08611 -1.39,-1.02535 -0.98,-3.62895 -3.85,-2.6639 -1.21,-2.48296 -1.23,-15.48082 0,0 -0.14,-5.70981 0,0 14.17,-0.0502 4.31,-2.98559 12.9,0.191 -2.54,-8.11235 2.3,-4.13157 -0.09,-3.19668 1.87,-5.59924 3.69,-6.44363 1.51,-6.6648 z" />
   <path fill="#808080" id="PH-BUK" title="Bukidnon"
      d="m 554.33,945.92807 1.22,-2.15122 -0.28,-2.35229 0.91,0.44231 0.99,-1.09572 -0.43,-2.74432 1.18,-1.80945 0.2,-4.17178 14.43,0.20106 -0.18,-3.83 3.94,-8.78587 11.7,1.08567 15.61,-0.17089 0,0 1.23,15.48082 1.21,2.48296 3.85,2.6639 0.98,3.62895 1.39,1.02535 -0.79,3.08611 1.42,3.07606 -0.28,3.85009 1.42,1.63856 -0.91,3.79984 0.46,2.93532 0,0 2.84,5.38813 -0.25,6.92615 1.84,3.83 -0.87,8.00178 -2.53,2.49301 -2.14,-1.24651 -3.29,0.79414 -1.47,-1.55813 -3.52,0.382 -0.14,4.70456 0,0 -2.28,-0.92483 -0.18,1.56819 -1.69,-0.11058 -1.99,3.58873 -0.76,4.21193 -6.36,0.9952 -1.35,3.3777 -5.5,0.382 -3.24,-2.3121 -3.52,1.2063 -0.14,-1.2466 -2.76,-1.347 -0.04,-2.0808 -1.63,-1.1963 -2.11,1.1359 0.84,-2.71408 1.84,-1.75918 -1.33,-4.54373 0,0 -0.31,-1.4375 -3.54,-2.19144 -0.05,-1.95017 -1.75,-1.56819 -0.08,-3.09617 -1.39,-0.73383 -3.49,-6.02143 -2.14,-0.76399 -1,-1.77928 0.49,-1.46767 -1.88,-1.05551 -2.97,-5.77012 -1.79,-7.9314 -2.69,-3.33743 0,0 4.71,-1.51792 1.06,-2.00045 -1.05,-1.74913 z" />
   <path fill="#808080" id="PH-COM" title="Compostela Valley"
      d="m 670.3,963.15802 -1.13,2.12107 7.22,23.88469 3.14,14.56602 0.41,12.7767 -24.92,12.8269 -0.72,1.518 0,0 -4.24,-3.7496 0.61,-2.9051 -3.97,-6.4235 1.29,-6.9262 -0.37,-1.0053 -1.34,0.01 0,0 0.8,-3.2569 -1.19,-1.8798 0.55,-2.1312 3.75,-1.8597 -2.42,-3.01571 4.86,-1.05551 1.36,-7.61978 -2.54,-3.22685 2.98,-5.02624 -1.77,-4.87545 -3.85,4.35273 -4.79,8.17266 -1.67,-0.14074 0.33,-2.52316 -1.01,-2.58349 -2.16,-1.03541 -0.79,-2.42264 -1.78,-0.64337 -2.04,-15.77233 0,0 22.18,0 1.25,2.61364 3.46,2.0105 1.65,-1.74914 6.86,-3.02579 z" />
   <path fill="#808080" id="PH-DAV" title="Davao del Norte"
      d="m 635.6,1039.0743 1.46,0.191 1.08,1.6185 -0.45,2.885 -1.92,-0.6936 -1.35,-2.8951 1.18,-1.1058 z m 1.64,-17.2299 1.86,2.0909 2.09,0.4323 2.58,3.3374 -1.56,6.2426 1.25,6.8156 -2.02,3.3675 -3.07,-5.2775 -0.81,-7.6198 -1.19,-0.5429 -1.18,0.9551 -1.11,-2.2217 3.16,-7.5795 z m -2.33,-58.5557 2.04,15.77234 1.78,0.64336 0.79,2.42265 2.16,1.0354 1.01,2.58349 -0.33,2.52317 1.67,0.14073 4.79,-8.17266 3.85,-4.35272 1.77,4.87545 -2.98,5.02623 2.54,3.22685 -1.36,7.61978 -4.86,1.05551 2.42,3.01572 -3.75,1.8597 -0.55,2.1311 1.19,1.8799 -0.8,3.257 0,0 -1.49,-0.2312 -7.03,4.7447 0,0 -3.25,-0.03 -4.04,4.1115 -7.62,0.3619 -0.28,-23.33177 -18.27,-0.46242 0,0 -0.23,-1.06555 0,0 0.14,-4.70456 3.52,-0.37195 1.47,1.55814 3.29,-0.79415 2.14,1.24651 2.53,-2.50306 0.88,-8.00178 -1.84,-3.83 0.25,-6.92615 -2.85,-5.38813 0,0 21.3,-0.92483 z" />
   <path fill="#808080" id="PH-DAS" title="Davao del Sur"
      d="m 604.3,994.99421 18.27,0.46242 0.28,23.33177 7.62,-0.3619 4.04,-4.1115 3.25,0.03 0,0 -2.55,2.1915 -0.02,1.3068 -2.24,1.0656 1.15,8.1727 -1.08,2.2115 -3.22,3.5686 -1.82,0.4524 -0.26,1.1962 -1.33,-1.6184 -2.48,1.4174 -2.7,3.4278 0.2,4.3728 -2.35,1.709 -0.34,1.8898 -2.36,1.6487 -2,3.2972 0.04,0.6936 -0.11,2.8448 -1.33,2.091 0.88,6.6346 -1.86,2.4729 2.04,0.1005 4.05,1.5783 0.32,-1.2566 -1.95,-1.9401 0.65,-0.8746 2.47,2.8751 1.5,-0.3016 -0.15,1.9904 2.71,1.1962 -0.06,2.5935 2.36,-1.1359 2.24,1.4476 -1.32,0.6634 0.58,0.7137 1.59,-0.3418 -0.95,5.3279 1.88,0.6333 0.81,0.5931 3.9,11.0175 2.28,3.3274 0.71,3.2067 -0.68,3.5385 0.85,1.3972 -0.95,5.6797 -2.91,7.5796 -10.8,12.4248 -1.11,3.4481 -6.13,9.5398 -5.89,1.2866 -0.75,-1.0655 0,0 -1,-1.4475 6.27,-4.7147 5.39,-11.4498 0.1,-2.0305 1.27,-0.8746 -0.55,-4.1818 3.92,-10.8969 0.25,-3.639 -2.03,-2.2518 -0.43,-7.0065 -3.36,-5.167 2.44,-2.6539 -0.46,-4.0109 -4.45,-6.6347 -5.22,-1.548 -2.3,3.5485 -5.07,2.3121 -5.67,-3.0158 0,0 1.96,-2.9755 -0.14,-1.8899 0,0 -1.12,-6.2627 -3.48,-4.2924 -0.09,-3.1062 1.45,-0.6634 -2.27,-1.7391 0,0 -1.47,-4.5538 1.75,-1.0857 1.4,0.8846 1.17,-1.3068 0.35,-3.0761 6.54,-5.4885 1.58,-4.6946 2.66,-0.2815 -1.75,-2.5835 -0.37,-4.5739 -3.12,-2.5935 -1.09,-2.4427 1.38,-4.3929 -1.41,-6.7554 1.56,-2.4728 -0.38,-6.2326 1.65,-2.93534 -0.83,-4.46325 z" />
   <path fill="#808080" id="PH-DAO" title="Davao Oriental"
      d="m 683.97,963.08766 0.7,6.66479 0,0 -0.05,1.93007 1.76,1.16609 -0.78,1.11582 0.71,1.64861 3.02,0.0905 -0.11,1.27666 2.05,0.42221 0.46,1.21635 3.1,3.71942 2.32,-0.24126 2.7,1.65866 -1.37,1.56818 0.71,1.74913 -0.63,2.68401 1.81,2.23166 -1.13,-0.0201 -0.3,2.06076 1.79,0.72377 1.2,6.20239 -0.3,2.5031 -2.7,0.1207 -0.5,0.8945 0.15,2.3926 1.86,0.4925 -1.61,1.5883 1,3.4581 -1.38,1.0555 1.13,1.7793 2.81,-0.07 -2.89,4.0209 -0.28,2.2619 -1.98,-0.3318 0.25,1.6184 -1.02,1.146 0.6,1.6386 -1.15,0.2915 0.05,1.3772 -2.06,0.4926 -1.58,2.2518 0.53,1.6284 -1.61,0.5931 -0.44,2.7343 0.94,1.7793 -3.23,-0.6836 -1.13,0.9852 -2.36,-0.1308 -1.89,-1.0353 -1.71,2.0909 -0.49,2.8449 -2.02,0.774 0.63,1.7391 3.98,3.4078 0.33,4.0712 -2.72,-0.05 -1.77,-1.3974 -0.2,-1.6988 1.12,-1.2767 -1.7,-1.5682 -0.98,-2.0005 -1.54,-1.749 -3.29,-1.1561 -1.42,3.7597 1.27,1.1258 -0.94,0.6132 5.74,8.9065 -3,8.7054 0.9,6.1019 -1.4,2.7343 0.05,2.6237 1.03,3.5385 -1.07,0.3418 -1.09,2.5633 0.72,4.986 -1.12,3.7898 -0.41,-4.9055 -1.47,-2.483 -2.23,-1.2063 1.04,-2.3121 -2.86,-3.3977 -1.97,-4.8051 0.66,-4.8856 -1.75,-4.2219 1.75,-2.0106 -0.7,-1.0957 1.01,-2.8348 -1.59,-1.7793 0.35,-5.9912 -4.12,-2.2619 -3.37,-3.9104 0.97,-6.122 -2.88,-2.5432 0.58,-1.0857 -1.15,-0.8846 0,0 0.72,-1.5179 24.92,-12.827 -0.41,-12.7767 -3.14,-14.56605 -7.22,-23.88469 1.13,-2.12107 0,0 13.66,-0.11058 z" />
   <path fill="#808080" id="PH-DIN" title="Dinagat Islands"
      d="m 620.13,782.26369 2.22,1.26661 -0.3,1.69887 -1.52,-0.32168 -1,-2.19144 0.6,-0.45236 z m 12.39,-0.66346 2.82,5.8807 -2.5,6.37327 0.43,4.05115 -2.26,-1.30683 0.26,1.65866 1.62,0.35184 1.08,3.19668 -0.96,0.89467 0.38,1.52798 1.58,-0.19099 -1.28,1.38723 0.16,2.05071 2.7,4.56383 -1.88,4.8453 0.51,2.27185 -1.64,1.03541 3.69,4.15167 -0.46,1.92002 -1.72,-0.11057 -0.76,1.12587 -1.77,-2.2417 -0.1,-4.08131 -3.62,-1.23645 1.84,-0.44231 -1.84,-1.15604 -1.01,0.0201 -1.31,-1.05551 1.47,-0.6333 -0.46,-2.17134 0.14,-1.10578 1.11,-0.59309 -0.1,-1.89992 -1.29,-0.75393 0.34,1.69887 -2.06,-1.38724 -2.76,1.55813 -2.65,-5.32781 1.03,-0.66347 0.8,-2.98558 1.94,0.0402 0.03,-0.59309 1.24,-0.86452 -2.19,-2.90516 0.61,-2.49302 -0.2,-0.65341 -0.3,-2.6639 3.23,0.0804 -0.64,-4.54372 2.26,1.70892 1.12,-0.48252 1.16,-5.61933 2.21,-2.23165 z" />
   <path fill="#808080" id="PH-LAN" title="Lanao del Norte"
      d="m 531.13,939.22307 5.56,-1.00524 10.87,0.66345 4.48,2.85491 2.29,4.19188 0,0 -0.33,1.85971 1.05,1.74913 -1.06,2.00045 -4.71,1.51792 0,0 -2.13,-1.63855 -8.71,-2.59355 -1.05,-1.20629 -2.42,0.32168 -1.64,5.56907 0.25,3.62894 -4.74,4.86541 -6.27,1.00525 0.78,2.70411 -1.95,4.41303 -6.4,0.382 1.6,5.44844 -2.64,5.25745 0.38,2.2417 -0.97,2.08087 -11.88,-3.66916 0.14,1.27666 -1.73,1.96024 0,0 -2.98,-0.25131 -0.75,-2.10097 -2.01,0.0302 0.17,-2.3925 -1.3,-1.92002 -2.1,-0.51268 0.02,-1.09571 -5.1,-1.15604 0,0 3.53,-9.14775 0,0 1.83,-1.98034 3.83,-1.36714 2.78,-4.26225 3.44,-2.0708 1.02,-1.93009 1.49,0.61321 2.21,-0.79415 2.39,-2.83479 6.21,-3.25701 9.96,0.93489 4.82,-1.90998 3.1,-4.94582 z" />
   <path fill="#808080" id="PH-LAS" title="Lanao del Sur"
      d="m 549.28,953.05528 2.69,3.33743 1.79,7.9314 2.97,5.77012 1.88,1.04546 -0.49,1.46766 1.01,1.77929 2.13,0.76398 3.49,6.03149 1.39,0.72378 0.08,3.10622 1.76,1.56819 0.05,1.95017 3.54,2.19144 0.3,1.4375 0,0 -7.73,-2.65385 -3.75,1.96024 -2.94,-0.68357 -2.88,-3.70937 -2.21,-0.64336 -3.04,0.24126 -4.04,1.95018 0,0 0,0 0,0 -5.45,6.16217 -8.39,4.28229 -3.99,4.956 0.27,1.4877 0,0 -1.36,0.4624 -3.75,-2.312 1.29,-1.0556 -2.1,-3.79978 -7.52,-9.81123 -2.06,0.32168 -0.86,-1.6084 -4.21,-2.06076 -7.25,-0.54283 0,0 1.73,-1.95018 -0.14,-1.27667 11.88,3.66915 0.97,-2.08086 -0.39,-2.23164 2.64,-5.25745 -1.6,-5.44845 6.4,-0.38199 1.94,-4.42309 -0.78,-2.69407 6.28,-1.00524 4.74,-4.8654 -0.25,-3.62894 1.64,-5.56908 2.42,-0.32167 1.05,1.20629 8.71,2.6036 2.14,1.60839 z" />
   <path fill="#808080" id="PH-MSC" title="Misamis Occidental"
      d="m 485.11,914.11198 0.78,0.60315 -0.51,0.79415 1.69,0.64336 3.5,0.0101 4.12,4.53367 2.9,3.257 -0.22,2.17133 2.68,2.13113 -0.08,1.61845 1.58,2.00044 0.65,5.81033 1.22,1.72903 -1.13,0.86451 -0.07,2.16128 1.32,9.1377 -5.63,4.17178 -2.02,3.71942 -3.49,-0.30157 -5.45,2.96547 0,0 -0.08,-1.31686 -2.44,0.51267 -2.81,-1.49782 -1.01,-12.45502 0,0 0.37,-29.74528 0,0 0.77,0.39205 0.91,-1.21635 0.61,0.35183 1.22,-1.76924 -1.7,-0.54283 2.32,-0.73383 z" />
   <path fill="#808080" id="PH-NCO" title="Cotabato"
      d="m 545.28,988.61089 4.04,-1.94013 3.04,-0.24126 2.2,0.64336 2.88,3.70937 2.95,0.68357 3.75,-1.96024 7.73,2.65385 0,0 1.33,4.54373 -1.84,1.75918 -0.84,2.71408 2.11,-1.1359 1.63,1.1963 0.04,2.0808 2.76,1.347 0.14,1.2466 3.52,-1.2063 3.24,2.3121 5.5,-0.382 1.35,-3.3777 6.36,-0.9952 0.76,-4.21193 1.99,-3.58873 1.69,0.11058 0.18,-1.56819 2.28,0.92483 0,0 0.23,1.06555 0,0 0.81,4.46325 -1.66,2.94544 0.38,6.2325 -1.55,2.4729 1.41,6.7553 -1.38,4.393 1.09,2.4427 3.12,2.5935 0.37,4.5638 1.75,2.5936 -2.66,0.2815 -1.58,4.7045 -6.54,5.4887 -0.35,3.066 -1.17,1.3169 -1.4,-0.8847 -1.75,1.0857 1.47,4.5538 0,0 -8.5,2.6036 0,0 -7.7,-4.5739 -3.98,1.1057 -2.06,-0.9348 -0.49,-16.0237 -1.3,0.01 0.02,-0.7942 0.25,-3.5083 1.95,0.081 0.15,-1.8697 -2.08,-0.091 0.04,-1.7994 -6.19,-5.9109 0.3,0.8143 -1.56,0.4725 0.09,2.0205 2.61,1.2968 1.14,1.8396 -1.35,-0.081 0.45,1.8697 -1.39,-1.3973 -0.84,2.1613 -0.24,-1.0856 -1.02,0.191 -0.46,1.4073 1.56,0.8344 1.05,2.4427 -0.65,0.7942 0.98,0.5629 -2.42,1.91 0.28,1.3571 -0.87,0.4624 -3.73,-2.0206 -2.85,0.2714 -3.86,-5.0061 -2.3,0.7137 -5.29,-4.2521 0,0 5.83,-10.6456 -2.85,-0.754 -3.98,1.2566 -3.01,4.3728 -3.22,-0.4524 5.71,-9.5599 1.01,0.4826 4.73,-10.8065 -3.84,-5.56903 z" />
   <path fill="#808080" id="PH-SAR" title="Sarangani"
      d="m 614.77,1150.3251 2.24,1.146 -0.56,3.9305 -1,-0.8143 -4.14,0.7037 -0.19,-1.4073 -1.38,-0.2112 3.01,-2.8749 2.02,-0.4725 z m 5.86,-4.3527 1.53,2.0004 -0.52,3.3776 -1.56,2.3624 -1.45,-3.3776 1.61,-1.4978 -1.27,-0.8143 1.94,-0.05 -1.06,-0.9449 0.78,-1.0555 z m -78.55,-52.2729 10.75,4.7046 2.75,3.0358 5.76,1.9301 9.52,5.1469 16.16,0.5629 2.62,-4.0009 -0.01,7.0971 3.65,0.3518 0,0 -0.26,2.9956 -1.6,1.4677 0.86,1.4877 -1.03,1.0656 -10.88,-0.03 -7.32,-2.1814 -13.25,-6.9463 -2.71,-0.1206 -1.85,-2.1513 -4.35,-0.5629 -6.65,-4.6543 -5.37,-2.292 0,0 3.21,-6.906 z m 56.28,-18.7076 5.67,3.0157 5.07,-2.3121 2.3,-3.5486 5.22,1.5481 4.45,6.6347 0.46,4.0109 -2.44,2.6539 3.36,5.167 0.43,7.0065 2.03,2.2518 -0.25,3.639 -3.92,10.8968 0.55,4.1819 -1.27,0.8746 -0.1,2.0306 -5.39,11.4497 -6.27,4.7146 1,1.4476 0,0 -2.03,-0.9851 1.08,-3.5084 -1.58,-4.4934 -3.54,-1.8697 -1.5,-3.5787 -2.5,-0.4624 0.45,-0.9751 -1.15,-1.0958 0.5,-2.6538 1.94,0.9348 1.03,-2.6136 -0.48,-1.8496 4.16,-2.2317 -0.5,-1.2967 1.86,-3.0761 -1.35,-7.7304 -2.35,-1.0153 0,0 -0.37,-5.4786 2.75,-4.9156 -0.13,-2.3824 -14.18,-5.1067 2.84,-5.8204 2,0 1.08,-3.0157 1.07,-0.4423 z" />
   <path fill="#808080" id="PH-SIG" title="Siquijor"
      d="m 484.6,867.79017 2.09,0.43226 2.02,4.26225 1.8,1.02535 -2.16,2.44275 3.32,3.26705 -1.52,1.75919 -2.94,-0.35184 -1.27,1.73907 -2.51,0.5529 -2.1,-0.48252 -7.79,-6.76532 1.29,-2.28191 2.21,0.76398 4.3,-0.94493 2.35,-1.82954 z" />
   <path fill="#808080" id="PH-SCO" title="South Cotabato"
      d="m 542.08,1093.6995 -5.7,-2.0105 -2.68,-6.313 19.11,-0.5328 3.74,1.3471 3.61,-6.0918 -0.3,-3.2671 -1.46,-0.9047 0.11,-2.3121 -0.86,0.05 -0.53,-1.91 2.83,-7.8108 0.99,-0.5126 1.26,2.0809 5.57,-5.2274 6.08,10.143 26.33,-0.3016 0,0 0.14,1.8899 -1.96,2.9756 0,0 -1.07,0.4221 -1.08,3.0158 -2,0.01 -2.84,5.8104 14.18,5.1066 0.13,2.3824 -2.75,4.9157 0.37,5.4786 0,0 -5.52,-0.563 -1.6,6.1924 -2.91,4.7548 0,0 -3.65,-0.3417 0.01,-7.1072 -2.62,4.0009 -16.16,-0.5629 -9.52,-5.1469 -5.76,-1.93 -2.75,-3.0258 z" />
   <path fill="#808080" id="PH-SUK" title="Sultan Kudarat"
      d="m 520.56,1054.535 12,-0.2713 1.25,2.1511 16.58,0.06 5,-5.2876 -1.71,-4.8152 7.41,-1.5882 -0.19,0.9449 2.91,0.1608 -2.14,6.1722 5.78,0.1207 2.35,7.9615 1.53,1.719 6.25,-0.5127 8.58,-4.6844 0,0 8.5,-2.6036 0,0 2.27,1.739 -1.45,0.6535 0.09,3.1162 3.48,4.2924 1.13,6.2627 0,0 -26.33,0.3016 -6.08,-10.143 -5.57,5.2274 -1.26,-2.0809 -0.99,0.5126 -2.83,7.8108 0.53,1.91 0.86,-0.05 -0.11,2.3121 1.46,0.9047 0.3,3.2671 -3.61,6.0918 -3.74,-1.3471 -19.11,0.5328 2.68,6.313 5.7,2.0105 0,0 0,0 0,0 -3.21,6.8859 0,0 -1.96,0.3518 -10.15,-7.0266 -1.27,-4.5336 -4.36,-3.438 -2.04,-4.9056 -0.88,-0.6735 -0.87,1.337 -1.46,-3.3978 0.47,-1.4174 -0.02,-0.6534 -1.27,-4.0109 0.63,-0.7339 -0.93,-0.382 0.34,-1.0555 1.29,0.5931 1.53,-1.0555 -2.05,-0.6936 1.23,-5.4083 -2.68,-6.6446 1.87,-2.3725 0,0 z" />
   <path fill="#808080" id="PH-SUN" title="Surigao del Norte"
      d="m 631.5,836.37617 2.57,0.42221 -0.95,0.85446 0.56,3.4279 -1.07,-0.382 -0.53,-3.05596 -1.42,0.48252 0.84,-1.74913 z m 29.17,-0.36188 2.96,0.30157 -0.04,1.4375 -2.62,-0.26136 -1.85,2.23165 0.05,-1.53803 -2.59,0.99519 -0.55,-1.80944 1.13,-0.47246 -0.07,-1.15604 1.89,2.14117 1.69,-1.86975 z m -6.37,-1.90998 -0.25,1.78935 1.54,0 0.12,-0.85446 0.67,1.30681 -0.83,0.47248 0.17,2.51312 1.71,0.29152 0.36,1.57823 -1.69,2.89511 -0.34,4.09137 -1.74,0.60314 -0.04,-1.09571 -2.51,-1.70893 -1.14,-1.06556 1.34,-0.8444 0.3,-0.22117 -0.24,-2.02054 1.42,-0.0703 -0.79,-2.96548 0.67,-0.55288 -1.37,-1.26661 1.06,-0.54284 -0.5,-2.0306 2.08,-0.30158 z m -21.81,-2.4528 1.8,2.77448 -2.49,-1.12588 -0.64,-0.0201 1.33,-1.6285 z m 5.52,-0.0101 1.65,0.81425 -1.05,2.08086 -1.85,-0.85446 -0.36,-2.04065 1.27,-0.26137 0.34,0.26137 z m -16.07,-0.12063 0.7,2.08086 2.93,-0.27141 0.9,1.27666 1.26,-0.46241 -0.69,1.25655 1.69,1.57825 -0.29,1.25655 1.48,1.89993 -0.68,1.13592 0.65,1.56819 0.23,0.68357 3.29,2.31207 2.4,-0.26137 1.83,1.33699 1.98,-0.51268 0.06,1.92002 7.62,1.79939 2.12,1.6084 0,1.47772 3.1,0.29151 0,0 -12.34,12.53545 0,0 -0.52,-4.88551 -3.91,-3.27711 -9.07,-1.67876 -5.23,0.18094 -2.66,1.2063 0,0 -4.51,-15.91307 0.72,-8.17266 2.82,-1.89993 -0.2,-2.27185 1.57,0.98514 -0.61,1.45761 1.52,-0.2111 1.84,-0.0302 z m 10.6,-8.95676 0.11,3.96068 1.08,0.94493 2.18,-0.13068 -7.1,3.41784 0.37,-1.98034 -1.15,0.83436 -0.14,-1.42745 3.08,-5.10666 1.57,-0.51268 z m -9.22,0.37195 2.74,3.59878 -3.15,-1.80945 0.41,-1.78933 z m 33,-3.75964 0.83,1.30683 -0.67,1.94013 -1.76,1.95018 -1.35,0.54283 -0.65,0.78409 -0.89,-0.41215 -0.16,-0.88462 0.54,0.51268 3.31,-3.32737 -0.52,-0.47247 1.58,-0.33173 -0.26,-1.6084 z m 6.66,-7.51925 4.29,13.72163 -0.66,0.97509 -0.97,0.46242 0.12,0.27141 1.68,1.25657 1.35,-0.60315 0.46,2.84485 1.49,-0.0403 -0.37,1.55814 -3.59,2.82475 -4.56,-0.48252 -1.91,-1.24651 -3.89,-2.99563 -1.66,-1.71898 0.76,-1.45761 2.49,-0.10053 -2.45,-1.75918 1.18,-1.71897 0.55,-1.66871 2.77,-3.68926 1.06,-2.15123 -0.5,-1.72902 2.36,-2.55334 z" />
   <path fill="#808080" id="PH-BAS" title="Basilan"
      d="m 367.35,1086.7633 0.06,1.6386 -0.73,0.1608 -1.65,-0.6836 0.4,-1.4777 1.92,0.3619 z m -30.86,-28.9009 -0.44,0.8344 2.17,1.2163 0.83,3.7797 1.63,1.7392 0.25,-2.5936 0.55,-1.1963 -3.18,-2.2719 -1.81,-1.5078 z m 32.87,27.3026 1.71,0.1205 -0.87,-1.6385 -0.84,1.518 z m -2.28,-0.6837 -0.74,-1.6586 -1.9,0.8143 0.64,1.1359 2,-0.2916 z m 23.31,-22.3164 -2.96,0.201 -2.24,-1.719 -6.62,-0.2814 -0.54,-3.4279 -2.86,0.2614 -2.48,-2.7946 -1.96,0.6534 -1.16,-0.2714 -2.04,0.7036 -4.86,4.7448 -2.86,1.0957 -3.75,-1.7189 -2.16,2.1512 -0.71,3.2469 2.2,1.6989 1.93,-0.3619 2.06,2.1312 -1.06,1.166 0.39,2.8449 2.36,1.548 1.2,2.6539 2.8,1.1962 -0.13,1.709 5.98,-0.3519 10.4,-2.9956 1.05,-1.0354 -0.34,-3.9507 1.55,-4.3426 1.88,-1.0555 4.76,0.3216 1.73,-2.4728 -1.56,-1.5481 z m -22.84,-7.3785 -0.89,-0.6535 -2.14,0.8947 -0.69,2.3322 1.65,-0.3418 2.07,-2.2316 z" />
   <path fill="#808080" id="PH-ZAS" title="Zamboanga del Sur"
      d="m 434.61,969.11914 3.37,0.31163 8.39,-6.15212 6.47,0.18094 0,-4.0612 1.9,-4.02099 0.55,-9.76095 10.72,0.56294 2.46,1.23645 12.14,-0.0403 0,0 1.01,12.45502 2.81,1.49782 2.44,-0.51267 0.08,1.31686 0,0 0.31,0.73384 0.2,0.83435 0.09,1.21635 1.84,1.63856 0,0 -3.53,9.14775 0,0 -4.06,-1.68882 -7.57,2.94538 -2.71,-0.29152 0.52,2.46286 -0.74,0.93487 1.83,0.3619 -0.18,1.23645 2.79,1.35709 -0.3,4.36277 -1.07,2.87501 -5.72,1.65865 0.29,3.71942 -2.36,-1.70891 -1.39,1.88986 3.25,1.35708 -0.09,3.15655 1.1,2.3924 1.2,-0.6132 2.8,2.3825 -0.98,1.7692 1.14,2.6539 -2.18,0.081 -0.51,1.0455 -2.53,-1.2465 -0.46,-1.6989 -3.21,-1.2264 -0.67,-1.8899 -2.66,-1.8698 1.21,-4.59396 -5.56,-0.62325 -3.07,2.50304 1.16,1.43757 -1.56,1.4073 -1.1,-1.1661 0.6,-0.955 -3.93,-1.39719 -0.93,-3.34755 1.86,-0.44231 0.13,-1.04546 -2.41,-1.63855 1.77,-0.16084 1.09,2.0306 2.8,0.13069 1.52,-1.17615 -1.39,-3.59878 -2.71,-0.21111 0.26,-0.85446 -1.17,-0.55288 1.29,-1.88987 -0.48,-1.76924 -1.66,-1.55813 -1.3,2.13113 0,0 -0.88,-7.71026 -12.31,-1.56818 -0.01,-6.37327 z" />
   <path fill="#808080" id="PH-CAM" title="Camiguin"
      d="m 564.85,870.96675 4.99,3.94057 1.41,4.18183 -0.48,1.12588 1.09,0.75394 -2.25,3.00569 -2.36,-1.67877 -4.82,-1.16608 -3.02,-3.73953 0.57,-4.63419 z" />
   <path fill="#808080" id="PH-SLU" title="Sulu"
      d="m 282.53,1144.4243 1.26,2.5131 -1.97,1.7592 -0.51,-1.709 1.22,-2.5633 z m -1.42,2.9756 -1.89,-0.563 2.36,-2.6639 -0.47,3.2269 z m -0.42,-6.7654 1.16,0.9651 -0.76,2.4628 -2.89,1.7491 -0.94,-2.2617 1.37,-2.473 2.06,-0.4423 z m 4.04,-1.337 3.98,3.4279 -1.68,2.8851 -1.8,0.8242 -2.97,-2.6939 -0.22,-1.3873 0.66,-2.1311 2.03,-0.9249 z m 16.12,-6.9764 -2.36,1.8497 -2.05,-1.7693 4.12,-0.9248 0.29,0.8444 z m -14.95,-1.3772 1.59,0.7238 -2.04,1.8799 -4.58,0.01 0.86,-2.5836 4.17,-0.03 z m 9.91,-2.5533 0.97,0.4423 -0.48,1.156 -1.13,-0.6233 0.64,-0.975 z m -6.17,-1.4476 1.04,2.8951 -3.15,1.6084 -0.17,-3.4781 2.28,-1.0254 z m 16.59,-6.7552 3.16,1.1459 1.11,2.4227 -3.2,1.5582 -1.63,-0.5831 -0.63,-1.92 1.19,-2.6237 z m -87.75,-2.6438 1.69,1.739 -3.03,-0.6634 1.34,-1.0756 z m 2.37,1.2364 3.64,-1.2063 -0.89,1.2666 -2.62,0.5429 -0.13,-0.6032 z m 1.94,-5.1268 -0.09,1.3169 -0.07,0.8545 -1.36,-0.7238 0.47,-1.3671 1.05,-0.081 z m 115.3,-2.684 0.79,1.7593 -1.92,1.4575 -0.89,-1.7893 0.8,-0.8846 0.31,-0.3619 0.91,-0.181 z m -106.15,1.4677 -0.98,0.181 -1.49,-1.5683 0.74,-1.0956 1.32,0.6936 0.41,1.7893 z m 103.98,-5.2374 -0.04,1.0053 -2.51,1.3068 1.5,-3.1363 1.16,0.01 -0.11,0.8142 z m -10.01,-1.8998 1.16,1.3972 -0.52,1.3773 -2.91,-0.071 -0.45,-1.4274 1.67,-1.5079 1.05,0.2313 z m 18.65,0 1.15,1.2766 2.72,0.4122 -4.43,3.1263 -1.09,-0.6635 2.44,-2.2919 -1.25,-0.8445 0.46,-1.0152 z m -16.02,-1.6386 0.48,0.965 -1.12,0.9349 -0.3,-1.5682 0.94,-0.3317 z m -24.93,-1.0957 3.13,0.9952 3.78,5.951 5.33,-1.6989 2.72,1.2667 3.35,-0.2614 0.49,-0.05 1.69,-0.3117 1.82,1.1259 0.5,2.6337 -2.74,1.3571 -0.2,2.6639 -2.28,-0.965 -4.91,4.4633 -1.12,-0.9249 0.82,-0.5628 -3.25,-1.1863 0.66,-2.0205 -0.65,-1.2063 -2.99,-1.2364 -0.97,1.3871 -0.79,-0.6432 -0.67,1.3771 -1.75,0.1408 0.04,0.8947 -3.85,1.357 -0.73,1.0254 -3.68,-3.7798 -6.14,2.9052 -4.42,-2.2719 -0.44,-2.5131 3.41,-5.2272 5.66,-2.0507 1.46,-2.3926 6.72,-0.2412 z m 47.73,-0.1508 3.53,3.83 3.32,1.5179 6.26,-2.4025 -2.78,2.5232 -4.03,1.4776 -5.77,-4.031 -1.47,-1.8094 0.94,-1.1058 z m -89.36,-3.7999 1.41,1.337 -0.99,1.1159 -0.99,-1.0354 0.57,-1.4175 z m 94.54,-0.2211 0.79,2.0406 -2.38,0.06 -0.24,-1.0353 1.83,-1.0656 z m -100.35,-1.8095 0.63,0.754 -0.99,2.1713 -2.74,-1.4375 3.1,-1.4878 z m 98.76,-0.2613 0.99,2.0205 -1.9,1.4074 -0.76,-1.6888 1.67,-1.7391 z m -61.86,-2.1613 1.92,0.955 -0.42,1.1561 -1.67,0.3619 0.17,-2.473 z m -22.54,-8.3335 0.91,1.136 -0.32,1.9703 -2.22,2.0708 -0.87,-1.2366 1.19,-1.6988 1.31,-2.2417 z m 15.04,-1.6385 0.95,1.6586 -2.44,0.8142 0.32,-2.0205 1.17,-0.4523 z m -19.32,-3.7496 -1.31,10.5249 -3.29,0.8544 -3.95,-1.0956 0.14,-1.317 2.84,0.4826 2.64,-7.8812 2.93,-1.5681 z m 8.31,-3.1565 0.02,3.0157 -3,-0.5629 -0.08,-0.9148 3.06,-1.538 z" />
   <path fill="#808080" id="PH-MSR" title="Misamis Oriental"
      d="m 600.82,883.06994 2.22,9.93184 -1.24,2.47291 2.64,3.60884 -1.75,1.39729 0.78,14.34488 0,0 0.14,5.71987 0,0 -15.6,0.17089 -11.7,-1.08567 -3.94,8.77581 0.18,3.83 -14.43,-0.20105 -0.2,4.17178 -1.18,1.80944 0.43,2.74433 -0.99,1.08567 -0.91,-0.44231 0.27,2.35228 -1.21,2.15123 0,0 -2.29,-4.19189 -4.48,-2.85489 -10.87,-0.66347 -5.56,1.00524 0,0 1.21,-3.73951 1.49,-1.32693 0.06,-4.86541 2.3,-5.86059 9.72,-5.99127 2.08,0.24125 -0.53,2.22161 2.97,1.2264 2.34,2.38243 1.88,0.16084 0.6,1.44756 5.53,0.67352 -0.89,1.54808 1.45,-1.34704 0.36,1.72903 2.54,0.79415 2.84,-1.46767 0.89,-1.48776 -0.8,-3.27711 2.12,-2.68401 -0.67,-3.46811 -1.45,-0.68356 -0.13,-3.10622 1.29,-1.78933 1.41,-0.0201 -0.97,-3.60884 1.81,-4.19189 -0.81,-11.12809 2.85,-2.11102 3.68,-0.26136 11.33,6.55421 3.9,6.61454 6.18,-1.26662 1.78,-5.98123 -1.16,-6.06164 0.98,-1.32692 0.18,-3.72947 1.33,-0.94493 z" />
</svg>