<svg xmlns:mapsvg="http://mapsvg.com"
   xmlns:dc="http://purl.org/dc/elements/1.1/"
   xmlns:cc="http://creativecommons.org/ns#"
   xmlns:rdf="http://www.w3.org/1999/02/22-rdf-syntax-ns#"
   xmlns:svg="http://www.w3.org/2000/svg"
   xmlns="http://www.w3.org/2000/svg"
   version="1.1"
   id="svg2"
   viewBox="265 525 450 450"
   preserveAspectRatio="xMidYMid meet">
  <metadata
     id="metadata89">
    <rdf:RDF>
      <cc:Work
         rdf:about="">
        <dc:format>image/svg+xml</dc:format>
        <dc:type
           rdf:resource="http://purl.org/dc/dcmitype/StillImage" />
        <dc:title></dc:title>
      </cc:Work>
    </rdf:RDF>
  </metadata>
  <defs
     id="defs87" />
   <path fill="#808080" id="PH-AKL" title="Aklan"
      d="m 365.12,673.29483 8.84,7.36847 6.05,0.86451 2.48,1.37719 1.78,-0.47246 1.21,2.01049 1.41,-0.6132 3.71,4.45324 2.28,-0.14073 1.67,-0.10053 -0.6,1.96024 2.02,-1.07561 2.52,4.31251 5.58,4.59398 -0.96,0.75394 -4.86,-4.91566 -1.98,0.78409 2.34,2.01049 0.12,2.32212 1.59,0.33174 0.44,-1.52798 0.87,2.12108 -1.27,0.10052 0.62,1.71897 2.11,0.0603 1.06,-3.01575 3.06,1.19625 2,0.92483 -2.04,0.67351 2.74,0.45237 0,0 -0.01,1.23644 -4.69,4.03106 -8.43,0.0905 -1.79,3.25701 -1.45,-0.35184 -1.39,4.08131 -2.07,2.28191 -2,1.58829 -5.43,1.45761 0,0 -1.29,-2.23165 0.61,-3.18664 -1.59,-0.91477 -0.25,-3.13638 -2.21,-2.42264 1.44,-4.41304 -1.05,-1.84965 0.71,-2.7946 -0.64,-3.61889 2.71,-5.50876 -1.21,-2.875 -12.7,-5.16697 -3.86,0.50262 -3.23,3.05595 -3.32,1.29677 0,0 2.67,-3.92047 0.31,-6.20238 4.39,-1.2666 0.98,-1.54809 z m -2.58,-4.58393 0.47,2.53323 1.35,0.77404 -0.55,1.12588 -2.57,-3.62895 1.3,-0.8042 z" />
   <path fill="#808080" id="PH-ANT" title="Antique"
      d="m 356.78,686.25248 3.32,-1.29677 3.23,-3.05595 3.86,-0.50263 12.7,5.16698 1.21,2.875 -2.71,5.50876 0.64,3.61889 -0.71,2.79459 1.05,1.84966 -1.44,4.41303 2.21,2.42265 0.25,3.13637 1.59,0.91478 -0.61,3.18663 1.29,2.23166 0,0 0.12,7.23778 0.62,-0.41215 0.39,3.50832 1.69,2.39248 0,0 5.91,8.23298 -0.52,5.23734 0.77,1.74913 -2.08,0.49257 -1.15,2.60359 -1.31,-0.20104 -4.39,4.52361 -1.85,5.75001 -7.39,4.87546 -2.89,4.8855 -0.89,3.64905 -0.76,5.93097 0.2,1.4375 1.17,0.54283 0,0 -5.02,4.49346 -3.59,-2.98558 0.19,-4.28236 3.2,-3.4279 1.46,-8.56471 -0.93,-3.57868 -3.06,-3.53847 1.95,-3.38769 2.46,-8.89644 5.07,-7.5293 -1.53,-11.70108 1.43,-2.56339 -0.06,-2.75437 -1.79,-2.81471 2.26,-3.14642 -0.44,-9.24828 1.65,-0.76399 0.79,-1.74913 -0.54,-3.00569 1.73,-7.71025 -0.16,-4.36277 -2.63,-2.72422 -1.39,0.76398 -9.19,-2.60359 -2.42,0.83436 -2.96,-0.45236 z m -29.7,-7.77057 5.69,0.42221 1.31,1.22639 -1.15,1.40735 -5.68,-1.19624 -1.61,0.5931 1.44,-2.45281 z m 8.73,-6.87589 1.67,1.82954 0.38,2.22161 -2.17,1.07562 -0.95,-0.87458 -0.17,-3.448 1.24,-0.80419 z m -14.56,-11.61061 2.36,0.35184 1.72,5.2876 1.26,0.77403 -2.79,3.50832 -2.4,-5.24739 1.86,-1.15604 -2.74,-1.31687 0.73,-2.20149 z" />
   <path fill="#808080" id="PH-BIL" title="Biliran"
      d="m 544.25,690.36394 2.91,0.10052 5.1,2.23166 3.35,7.88114 2.51,1.86976 -0.85,4.07126 -2.04,1.18618 -4.76,0.25132 -0.58,-0.75394 -1.73,1.2264 -2.74,-1.84965 -1.46,-3.92047 -1.16,0.33173 -1.08,-1.71897 0.3,-2.63375 -2.85,-3.60884 0.29,-1.04546 -1.1,-0.93488 2.09,-1.73908 3.8,-0.94493 z m -7.54,-7.9113 2,0.8042 -0.17,2.19144 -1.68,1.0153 -2.36,-2.14117 2.21,-1.86977 z" />
   <path fill="#808080" id="PH-BOH" title="Bohol"
      d="m 501.48,842.53835 2.54,1.34702 -0.17,1.57825 -5.15,3.85009 -3.35,0.4021 -0.44,-2.16128 -2.07,-0.86452 8.64,-4.15166 z m -4.47,-18.08441 1.23,0.31162 -1.96,1.84966 -0.46,-2.13113 1.19,-0.0302 z m 3.51,-1.55814 2.8,0.31163 -1.93,1.60839 -1.99,-1.58829 1.12,-0.33173 z m 57.59,-17.77278 -2.03,3.09617 0.98,-0.20106 0.11,1.89993 -3.21,-0.28148 -0.56,2.67396 -1.26,0.0101 -0.57,-1.94013 0.9,-1.53803 -1.04,0.34178 -0.02,-1.52797 1.97,0.34178 0.22,-1.42745 1.45,1.57824 0.38,-2.05071 0.85,-0.52272 1.83,-0.45237 z m -23.67,-1.53803 3.56,2.51312 0.08,1.81951 2.01,-2.90517 1.67,1.74913 0.15,1.78934 1.59,0.29152 4.67,3.36757 1.78,-1.4576 3.07,2.6438 1.06,3.33742 -1.19,0.41215 0.66,4.41305 -1.26,0.51267 2.85,0.7841 -1.25,2.90516 -3.31,1.67876 6.02,3.26705 -0.45,3.8099 -1.43,1.55813 -3.69,0.76399 -1.65,-2.94538 -0.92,0.0905 -2.71,2.88506 -2.83,0.85445 -0.66,4.21199 -10.26,4.01095 -5.17,-0.86452 -9.31,1.54808 -14.86,-3.50831 -0.68,-2.28191 1.87,-3.66916 -0.53,-0.49257 -1.75,-1.29677 -3.74,0.17089 -0.18,-3.96068 1.55,-2.94537 -1.35,-1.0354 0.1,-1.16609 1.98,0.6132 -0.41,1.0153 1.86,-1.47772 0.3,-1.65865 2.33,-0.89467 -0.41,-1.14599 1.03,-1.27666 0.8,1.23646 4.99,-3.29722 4.77,-0.8042 1.25,-1.55813 1.36,-5.85055 2.66,0.12064 3.9,-6.42354 9.13,-0.11057 0.95,-1.34704 z m -7.73,-0.32168 0.57,0.46242 -1.05,1.27667 -1.36,-0.70369 1.84,-1.0354 z m 5.47,-2.14117 -1.79,2.13112 -2.12,0 -0.63,-0.67351 4.54,-1.45761 z m -6.49,-0.37195 1.07,1.12588 -2.5,0.45237 1.43,-1.57825 z" />
   <path fill="#808080" id="PH-CAP" title="Capiz"
      d="m 420.07,697.36046 5.6,0.31163 0.08,0.96504 2.44,-1.13593 0.21,1.06556 1.97,2.10097 0.56,0.86451 -0.68,1.5883 0.8,-0.37195 0.79,-0.39205 3.84,2.11103 -1.07,0.97509 -0.46,0.31162 -1.94,0.764 0.57,1.53802 -2.12,0.98514 2.48,2.28191 0.61,-0.86451 0.77,-1.27666 0.26,-2.30202 1.25,0.53279 0.52,-0.27142 3.41,-0.25132 7.81,-4.52361 0,0 -3.46,6.97642 0.03,3.94057 -2.47,1.2063 -2.75,-0.15079 -2.99,1.74913 0.84,3.98078 -4.23,2.03061 0.01,2.95542 -1.13,-0.26137 -1.64,3.639 -5.07,0.74389 0.12,-2.76444 -1.46,-0.66346 -8.14,1.21635 -1.8,-1.76924 1.65,-2.10097 -1.08,-0.2312 -2.98,3.31732 -1.2,-0.74389 0.13,-1.29677 -1.31,0.86452 -0.87,2.63375 -3.92,1.77929 -3.03,-1.08568 -4.52,0.1508 -4.99,-2.6237 -6.05,6.37327 0,0 -1.69,-2.39249 -0.39,-3.50832 -0.62,0.41216 -0.12,-7.23779 0,0 5.43,-1.4576 2,-1.5883 2.07,-2.28191 1.39,-4.08131 1.45,0.35184 1.79,-3.25701 8.43,-0.0905 4.69,-4.03104 0.01,-1.23645 1.03,1.33698 0.02,1.10577 2.66,0.0403 2.08,-1.3973 -1.59,-0.74388 1.11,-2.03059 0.73,2.36232 0.81,-0.0804 0.98,-0.25131 -0.35,-1.37719 3.19,-1.08566 -0.65,-1.30683 -0.61,-0.77404 0.76,-0.27142 z" />
   <path fill="#808080" id="PH-CEB" title="Cebu"
      d="m 518.59,795.15097 -1.28,3.66915 -0.93,-0.30158 -0.61,-0.89467 2.82,-2.4729 z m -6.14,-3.4279 1.4,1.57824 2.8,-1.49782 -4.54,5.53892 -1.13,-0.0704 -1.76,1.20631 -0.74,-1.01531 1.75,-1.32692 -0.3,-0.63331 -0.66,-0.0603 -1,0.58304 0.47,-2.19144 3.71,-2.11102 z m 32.71,-28.26757 5.11,2.79459 0.37,1.78935 -5.21,2.09091 -2.98,-0.0804 -1.24,-1.16609 -0.24,1.51792 -5.03,2.75438 -2.65,-0.31162 2.09,-3.99084 0.85,-4.77492 4.25,1.40734 0.72,3.03586 2.05,-4.19189 1.91,-0.87457 z m 9.14,-7.1071 -1.31,4.08131 -3.27,2.21154 -0.24,-2.19143 2.46,-2.97554 2.36,-1.12588 z m -36.47,-34.3292 -0.43,1.37719 1.01,0.36188 -2.37,3.59878 -0.15,4.30247 -3.83,5.54896 1.03,0.18095 0.08,1.4174 3.21,-0.21111 0.17,5.78018 -1.04,3.50831 1.78,3.48822 -1.65,3.15647 -0.24,4.21199 -1.75,1.92003 2.1,12.86717 -1.07,-0.35184 0.5,2.46285 0.61,-0.66345 0.21,0.77403 -0.33,4.00089 -2.49,6.19233 1.67,2.18139 -3.41,2.82474 -0.61,1.26661 -5.93,2.87501 -1.55,3.0258 -7.08,1.6687 -0.66,2.16129 -5.13,5.0765 -0.34,3.06601 -2.89,0.12062 -1.89,6.50396 0.74,3.41784 -1.29,2.84485 0.1,2.6438 -2.53,1.23646 -1.04,3.0459 -1.71,0.96503 0.11,3.33743 -2.03,1.95018 0.04,2.57343 -3.14,9.18797 -8.32,10.86673 -3.66,0.52273 -0.29,-6.16218 3.35,-20.97952 1.95,-2.34222 -0.02,-3.79984 1.47,0.13069 0.75,-2.70412 -0.6,-2.28191 -1.96,-0.83436 0.23,-3.09616 0.97,-0.67351 0.5,2.22159 0.96,-0.64336 0.87,-5.51881 2.36,-0.94493 0.16,-1.30683 4.93,-5.24739 0.74,-3.06601 3.98,-5.14686 -0.07,-4.81513 6.26,-6.2426 0.59,-3.05595 2.78,-3.08611 -0.73,-3.41785 2.88,-4.61408 -0.16,-1.96023 4.3,-6.51401 2.26,-1.0153 2.55,-7.07694 1.05,-3.35753 3.79,-8.63508 -0.05,-1.26661 -0.82,0.6132 -1.5,-2.34223 2.34,-2.34223 0.1,-3.11626 2.3,1.74913 -1.63,-7.56952 3.39,-3.15648 0.63,-3.14642 4.59,-0.52272 z m -24.12,-1.59836 1.47,1.21635 1.29,5.52887 2.92,3.20674 -0.06,1.08567 -6.29,1.02535 0.8,-1.99039 -1.1,-0.0403 -2.11,-4.65429 3.08,-5.37809 z" />
   <path fill="#808080" id="PH-EAS" title="Eastern Samar"
      d="m 655.36,759.1631 0.72,2.19143 -2.28,-1.95017 1.56,-0.24126 z m -19.02,-3.53848 2.38,1.93007 -1.23,2.52318 0.52,1.26662 6.81,1.16608 0.63,1.00525 -0.81,1.59834 -4.15,0.49258 -2.02,-2.15124 -1.88,-0.43225 0.22,-0.88462 -2.3,-0.67352 -0.85,-2.97553 2.68,-2.86496 z m -3.59,-13.4301 0.49,1.90996 -0.91,0.48252 -1.63,-1.01529 0.11,-1.2063 1.94,-0.17089 z m 8.83,-1.9904 5.15,6.85579 -0.98,0.11058 -4.39,-5.48865 0.22,-1.47772 z m -44.59,-92.83463 1.06,-4.06119 2.05,-2.22161 7.1,8.06209 2.12,-1.27666 0,0 -0.3,0.5931 1.44,0.19099 1.34,-2.66391 1.84,0.25131 -1.79,1.70893 0.71,0.6333 1.21,0.37195 1.05,-1.15604 0.5,0.88462 0.5,-1.19624 1.9,0.86451 1.88,2.20149 -0.64,1.19624 1.63,-0.25131 0.14,1.3973 1.09,0.72378 -0.04,-1.09573 1.53,1.92003 -0.34,1.52798 -0.89,-0.88462 -0.11,0.96504 -3.04,0.37194 1.37,0.96503 -0.52,1.05551 -1.63,0.10053 0.04,2.4327 2.64,-0.17089 0.63,0.8243 -1.51,0.33173 2.12,2.16129 1.31,0.0403 -4.38,5.00614 -2.14,2.73427 -0.44,4.56383 1.69,1.79938 -0.5,3.39774 1.93,0.51268 0.79,1.86977 -0.87,1.47771 -1.59,-0.67352 -1.96,1.70893 1.39,-0.0403 -0.42,0.74389 1.01,0.68357 1.57,-1.41741 1.51,4.73473 -0.85,0.72378 1.54,0.87456 -0.8,0.83435 -2.11,-0.50262 -0.42,0.98514 1.21,0.88462 -1.81,2.2216 0.72,1.73907 1.84,-0.14073 -0.31,3.4279 3.35,3.80988 0.22,1.51793 -1.78,1.93008 2.07,-0.48252 1.59,1.16608 0.58,2.36233 0.79,0.88462 1.47,-0.39204 1.41,2.46285 2.18,0.67352 -1.37,4.08131 -4.88,3.14643 -0.97,4.45323 4.62,1.47772 -0.65,-0.69362 1.94,-0.0201 0.3,-0.84442 -2.3,-1.88986 0.89,-0.55288 4.78,2.58349 7.1,12.21375 -0.75,1.35709 -2.5,-1.08567 -1.17,-2.77449 -2.2,-1.25655 2.16,-2.27186 -2.63,-0.1709 -0.38,-1.84965 -5.64,2.11102 -0.54,-0.31163 -1.21,-0.69362 0.86,-1.56818 -2.92,-0.13069 -1.33,5.04635 -1.55,-1.41741 -1.03,-0.47246 -1.03,-1.39729 -0.93,0.59309 0.38,1.4174 -1.41,-0.90472 -0.18,1.4375 -1.78,0.69363 -0.22,-1.35709 -2.29,0.0703 -0.98,-1.48776 -3.13,0.20105 -1.43,-1.95018 -2.34,0.51267 -0.88,1.37719 0,0 -0.28,-14.74698 4.16,-6.00133 -1.55,-1.97028 -3.96,-1.37719 -1.77,-11.44978 1.05,-2.59353 4.43,-3.24695 -0.88,-13.06822 -4.5,-10.45458 -6.73,0.0101 -0.19,-12.71638 2.41,-1.57824 0.53,-7.35842 z" />
   <path fill="#808080" id="PH-GUI" title="Guimaras"
      d="m 419.38,781.39917 1.61,1.57825 -3.25,0.70367 0.25,-1.78934 1.39,-0.49258 z m -3.32,-20.57742 3.89,2.77449 0.6,1.72902 0.37,5.62939 -3.12,6.2627 -0.17,2.2618 -1.31,2.14118 -1.35,0.0201 0.14,1.49783 -1.43,1.2063 -3.35,0.43225 -2.8,1.58829 -2.04,0.0703 -0.44,-3.27711 -2.5,-2.20149 0.62,-1.92003 2.88,-0.71372 0,-1.76924 -0.94,-3.02579 3.82,-4.48341 -0.11,-1.65865 1.43,0.39204 2.09,-1.23646 0.38,-3.13637 3.34,-2.58349 z" />
   <path fill="#808080" id="PH-LEY" title="Leyte"
      d="m 536.17,700.95925 8.88,8.95676 2.35,3.8903 0.77,-1.29677 -1.28,-2.86495 1.15,-0.68357 4.23,2.24171 1.07,6.31295 2.4,2.55333 1.67,-0.53278 3.02,1.35709 4.42,-1.00525 6.62,-5.01619 1,-4.22204 3.44,0.47247 1.17,1.2063 1.76,-0.96504 0.81,1.04546 2.01,-1.43752 1.02,2.50307 1.7,-0.37194 -0.8,1.46767 0.76,0.73383 -1.2,1.25655 0.02,5.33787 1.07,1.99039 2.24,0.14074 -0.2,2.34223 1.03,0.8444 -0.89,3.94057 2.34,6.62458 -0.36,9.76096 -2.32,6.6648 1.71,7.83088 1.13,1.4576 5.37,1.56819 -0.77,1.64861 3.21,3.76967 0,0 -7,7.25789 -8.21,-0.0302 -3.39,8.83612 0.49,10.27364 -3.81,0.8243 -5.23,5.03629 -1.15,-0.50262 0,0 2.25,-9.25834 -1.81,-2.92526 -2.39,-1.38725 -0.9,-7.96156 3.34,-3.87021 0.33,-6.22248 2.39,-2.84485 -1.52,-8.56471 -5.49,-7.69014 -1.68,-4.28236 -2.19,-0.97509 -4.24,-4.56382 -1.77,0.30157 -2.36,2.36233 0.92,3.52842 -2.5,4.58393 -2.85,0.14073 -2.03,-2.34223 -1.2,0.62326 0.38,-2.18138 -1.33,-2.18139 -0.32,2.58349 -2.89,-0.75394 2.46,-4.37283 -0.33,-3.73952 -2.58,-2.31207 2.33,-3.41784 -1.27,-6.84574 0.13,-1.72902 0.15,-1.22641 -0.84,-2.29197 -0.65,-1.08566 0.32,-1.19624 -2.14,-0.72378 -0.04,-3.52843 1.42,-0.25131 -2.15,-0.89466 -0.42,-1.31688 1.69,-0.77405 -2.32,-0.62325 -1.99,-5.83044 -0.05,-3.32736 1.89,-1.84966 z" />
   <path fill="#808080" id="PH-NEC" title="Negros Occidental"
      d="m 454.94,742.36541 3.65,0.4222 1.54,0.90472 3.71,2.68402 6.6,-0.28148 4.38,2.49302 1.7,-1.26661 1.58,1.34703 -1.42,0.79415 1.87,0.47246 0.9,4.78499 2.37,-0.54285 -0.69,1.86977 0.88,1.76923 -1.94,3.26706 -1.12,-0.8042 0.33,1.53803 -1.61,2.55333 -1.46,8.01183 -1.2,3.84004 -0.98,0.41215 0.44,1.18619 -3.04,3.44801 -4.72,2.53321 -1.6,4.37283 0,0 -6.13,-2.27186 -8.89,0.23121 5.21,10.49478 -6.3,7.64995 -6.78,11.30904 -2.14,7.40867 -18.45,23.60321 -6.45,6.53412 -2.51,5.8807 0,0 -5.49,-5.25745 -1.35,-3.77973 -2.8,-1.5883 -1.09,-4.38287 -1.61,0.27141 1.05,-2.89511 -1.96,-0.83436 -1.66,0.88462 -0.7,-0.98514 1.69,-1.96023 -1.81,0.57299 -1.17,-1.18619 1.31,-2.65386 -0.75,-3.32737 0.91,-1.94012 -1.81,-1.54809 4.07,-4.60403 1.35,-5.65955 4.05,-0.77404 11.43,0.65341 8.33,-6.58437 3.32,0.27142 3.13,-2.3925 -1.96,-9.59006 0.06,-5.25745 1.66,-5.40823 -4.99,-11.16829 2.29,-2.19145 1.96,0.28147 1.9,-1.19624 0.14,-1.2063 2.58,-2.09092 1.83,-5.2876 0.16,-3.17658 1.25,-0.47246 0.38,-4.58394 -1.28,-1.08566 -0.53,-3.45806 1.05,-1.08567 -0.32,-1.93007 6.31,-2.11102 1.58,1.32693 4.94,-4.77493 1.97,-0.191 2.85,-2.29196 z" />
   <path fill="#808080" id="PH-NER" title="Negros Oriental"
      d="m 412.66,859.0043 2.51,-5.88069 6.45,-6.53411 18.45,-23.60322 2.14,-7.40868 6.78,-11.30904 6.3,-7.64993 -5.21,-10.49479 8.89,-0.23121 6.13,2.27186 0,0 -0.34,7.72031 -3.34,6.86584 -0.28,4.0612 -3.88,9.19801 -3.27,3.67921 -0.4,2.26181 -1.92,1.38725 0,3.68925 -1.43,1.08566 2.14,9.70065 -0.41,5.42834 -2.29,-1.61845 -1.27,1.94013 1.2,2.19144 2.47,0.28146 0.52,1.42746 -0.99,1.10577 0.13,-1.2465 -1.06,-0.49257 -1.29,2.6639 2.48,0.0603 2.2,5.01619 3.22,1.09572 2.32,6.16217 2.82,2.07081 0.97,2.44275 -2.04,8.09225 -5.98,8.46418 -3.7,1.4174 -1.75,2.16129 -1.13,-0.5931 -2.71,-0.94493 -4.27,2.08086 -5.37,-2.72422 -4.62,-10.97731 -0.99,-7.64994 -5.08,-2.51312 -8.71,-1.22639 -4.39,-2.92528 z" />
   <path fill="#808080" id="PH-NSA" title="Northern Samar"
      d="m 520.54,647.11818 1.04,1.13593 -1.11,1.37719 -1.05,-1.84966 1.12,-0.66346 z m 12.87,-5.35797 -2.01,-3.11627 -0.27,-4.10141 2.49,3.38769 -0.21,3.82999 z m -9.74,-8.70544 3.62,4.99608 -0.75,2.33217 -3.14,-3.75963 0.27,-3.56862 z m 20.68,-7.44889 0.34,1.25656 1.73,0.5931 -1,0.86451 -2.11,-0.95499 1.04,-1.75918 z m 4.66,-0.10053 2.11,2.91522 -1.48,0.15079 -2.1,-2.90517 1.47,-0.16084 z m -9.37,-0.62325 1.6,0.4021 -0.2,1.25656 -1.46,0.31162 -0.62,-1.8396 0.68,-0.13068 z m -0.29,-2.87501 2.51,1.85971 0.2,1.77929 -2.4,-1.11583 0.5,-1.26661 -0.81,-1.25656 z m 45.86,-1.08566 1.47,1.31688 0.44,2.17133 3.83,1.6486 -1,1.38724 -0.61,0.96504 1.93,0.47247 -0.08,-3.19669 1.71,-0.29153 1.13,1.42746 2.44,-1.5883 8.85,6.86585 -0.52,1.42746 2.26,0.33173 0.28,3.01574 3.07,1.66871 -2.8,0.62325 1.25,0.8042 -1.31,0.16084 0.52,1.52798 -1.43,0.62325 0.32,1.85971 2.22,0.2312 -2.46,1.6084 0.5,1.15604 3.29,-1.87982 -0.67,1.23646 0.83,1.11582 -1.35,0.28148 0,0 -2.12,1.27666 -7.1,-8.06209 -2.05,2.2216 -1.06,4.0612 0,0 -3.48,0.35184 -9.53,3.92046 -4.92,-1.81949 -3.58,8.51444 -1.87,-2.73427 0.86,-3.20674 -9.34,-5.33787 -5.29,3.59879 -11.47,-6.88594 -3.99,3.84004 -5.17,0.0603 0,0 -1.72,-4.80508 0.84,-2.90516 -0.56,-0.42221 -0.52,1.17613 -1.42,-4.66434 -0.1,-0.33174 -1.75,-1.75918 -0.2,-3.80989 -1.53,-2.26181 1.44,-2.53321 3.22,2.09091 0.33,1.45761 0.85,-0.8243 1.13,0.61319 -0.11,-1.34703 2.66,1.31688 -0.03,-2.09091 2.12,1.63854 -0.02,1.12588 1.61,-0.33172 1.71,-0.87458 -0.86,1.34704 0.54,1.21635 0.95,-0.10052 -0.11,-1.81951 2.69,1.28672 3.38,0.0201 0.61,-0.8042 6.94,0.91478 5.32,0.25131 4.64,-2.10097 2.95,1.25656 2.02,-0.53278 1.14,-2.35228 -1.77,-1.41741 2.13,0.49258 0.32,0.43226 2.91,0.33173 1.77,-1.27666 0.55,1.48776 -0.91,0.46242 2.79,0.4423 1.74,-1.02535 -1.69,-5.73996 z m 5.42,-2.93533 1.68,6.01139 -4.05,-1.40735 1.39,-0.12063 0.48,-1.19624 -2.22,-0.92483 0.14,-1.46767 0.56,-0.92482 2.02,0.0302 z m -51.15,-0.88462 2.04,0.82431 0.3,3.257 -2.01,-1.1862 -0.33,-2.89511 z" />
   <path fill="#808080" id="PH-WSA" title="Samar"
      d="m 573.7,691.33903 2.01,0.12063 0.71,1.28672 1.48,-0.43225 0.35,1.13592 -1.65,1.16609 0.67,1.86976 -3.32,-0.57299 0.26,-2.76444 -1.36,-1.13593 0.12,-1.8396 0.73,1.16609 z m -7.25,-2.42264 0.53,1.82954 1.28,0.47247 -0.13,1.30682 1.96,-1.01529 -1.05,1.62849 2.87,1.75919 -1.41,1.93008 0.57,1.39728 0.76,-0.65341 3.19,0.65341 -1.37,1.62851 0.57,2.37239 -1.15,1.2666 -2.32,-1.39729 1.04,-1.30682 -2.89,-0.60315 -0.33,-2.51312 1.53,0.93489 0.45,-0.84442 -2.89,-3.16653 -0.91,0.70368 -0.42,-2.56339 -0.75,0.54284 0.3,-2.0306 -0.56,-0.77405 0.97,-0.65341 -1,-0.88462 1.16,-0.0201 z m 1.42,-0.97509 1.99,1.02535 -1.03,2.02054 -1.32,-0.96503 0.36,-2.08086 z m -7.95,-13.36981 0.13,0.85447 1.45,-0.0603 -0.49,1.46766 -1.73,-1.44755 0.64,-0.81426 z m -14.05,-0.59308 1.25,2.94537 -1.18,0.66346 -2.41,-0.85445 0.43,-2.21155 1.91,-0.54283 z m -8.45,-2.38245 0.48,1.59834 -2.01,2.71418 -2.32,0.31163 0.07,-2.32212 3.78,-2.30203 z m 6.59,-2.20149 0.97,0.91478 -0.73,1.61845 -1.68,-0.78409 -0.03,-1.44756 1.47,-0.30158 z m -14.43,-6.83568 0.95,0.0101 0.03,1.76924 -1.62,-0.66347 -2.85,2.69407 -2.22,-1.12588 1.65,-2.29197 4.06,-0.39204 z m 9.62,-14.88772 5.17,-0.0603 3.99,-3.84004 11.47,6.88595 5.29,-3.59879 9.34,5.33786 -0.86,3.20674 1.87,2.73427 3.58,-8.51444 4.92,1.81949 9.53,-3.92046 3.48,-0.35184 0,0 -0.53,7.40869 -2.41,1.57823 0.19,12.71638 6.73,-0.0101 4.5,10.45458 0.88,13.06822 -4.43,3.24695 -1.05,2.59354 1.77,11.44977 3.96,1.37719 1.55,1.97029 -4.16,6.00132 0.28,14.74699 0,0 -1.27,2.36233 -1.94,-0.91477 -1.03,-6.24259 -3.23,-6.8759 -5.77,-0.78409 -4.65,1.35708 -2.05,-1.15604 -0.41,-2.86495 1.69,-2.25175 -0.88,-5.0765 -1.48,-0.76399 -0.29,-1.62851 -1.34,0.33174 -2.76,-1.58829 0.25,-1.41741 0.02,-0.57299 -1.35,-0.82429 0.07,3.35752 -0.77,-0.75394 -2.76,0.55289 -1.43,-1.86976 0.79,-0.53279 0.01,-0.94493 1.9,-3.30726 0.99,1.56819 1.61,-0.382 0.36,-1.04546 -1.56,-0.38199 0.29,-1.3973 4.79,0.42221 1.35,-0.91478 -0.6,-0.98513 2.07,-1.53803 -0.8,-4.0411 3.97,-3.13637 0.79,-1.55814 -0.25,-1.72903 -2.97,-1.45761 -6.39,2.89511 -1.66,-1.00524 -0.41,-1.8195 -1.67,-0.98514 0.05,-1.57824 -6.07,-3.70937 0.2,-1.12587 1.62,-0.71373 -0.7,-1.2264 -2.02,-0.33173 0.42,0.80419 -2.21,0.14075 0.9,-1.33699 -0.52,-0.96504 1.87,-0.73383 -4,-0.76398 -0.9,-2.0105 0.66,-0.34178 -1.43,-1.64861 -0.2,-0.55289 -3.63,-3.21679 -3,-0.98514 -4.92,0.16084 -5.55,-5.41829 -0.15,-1.3973 -4.33,-3.03584 -2.38,-6.41348 z" />
   <path fill="#808080" id="PH-SLE" title="Southern Leyte"
      d="m 596.74,770.51234 3.09,3.31732 -1.98,3.17659 1.96,4.44318 -0.9,3.28717 2.57,3.2369 1.82,-0.69363 1.35,1.71898 0.71,5.34792 -1,2.92526 -2.47,0.88463 -6.4,-2.15124 0.55,7.61979 -0.77,0.79414 2.52,2.11102 3.55,0.41215 2.3,6.36322 2.62,3.49827 -0.65,1.75918 1.88,2.61364 -0.44,1.42745 -2.57,0.11057 -0.56,-2.53321 -1.84,-1.05551 -2.72,-5.54897 -3.66,-1.77929 -1.35,-3.73952 0.42,-4.76488 -2.82,-2.92527 -4.25,-11.11804 -1.21,-0.88462 -2.86,0.53278 1.33,8.73561 -0.69,3.04589 3.37,9.22818 0.3,6.11191 -6.65,-5.62939 -2.28,-0.6132 -1.13,-2.33218 -8.14,-0.89466 -1.5,-1.84967 0.19,-2.4729 0,0 1.15,0.50262 5.23,-5.03629 3.81,-0.82431 -0.49,-10.27362 3.39,-8.83613 8.21,0.0302 7.01,-7.278 z" />
   <path fill="#808080" id="PH-ILI" title="Iloilo"
      d="m 451.33,731.20716 0.48,0.91477 -2.7,3.13638 -0.58,-2.73428 2.8,-1.31687 z m 1.59,-4.87546 1.63,0.0804 -1.33,1.9904 -1.07,-1.33699 0.77,-0.73383 z m -0.21,-6.72511 2.11,1.44757 -3.21,3.32736 0.21,-4.14161 0.89,-0.63332 z m 6.83,-11.04767 1.29,1.07562 -1.86,1.72903 -0.62,-2.36234 0.38,-0.84441 0.81,0.4021 z m -1.75,-0.28146 -2.12,0.31162 -1.12,-1.24651 0.56,-1.90997 1.4,-0.50262 0.64,0.9952 0.64,2.35228 z m -2.81,-5.58918 -0.39,2.06076 -2.62,1.53802 0.68,-2.41259 2.33,-1.18619 z m -3.44,-4.32256 1.01,2.73427 -1.82,4.01093 -1.21,-1.47771 -0.51,0.86452 -1.29,-0.33174 1.25,1.78935 1.96,0.31162 -0.94,1.11583 1.8,-0.81426 0.92,1.34703 -2.7,3.99084 1.73,1.66871 -0.73,2.0306 -1.13,0.33173 0.5,1.31688 -2.46,0.98514 0.66,2.42264 -1.15,5.10666 2.28,2.2417 -0.27,2.46287 -1.22,0.67352 -3.05,-2.26181 0.38,1.31687 -2.66,0.0201 -1.51,5.49871 -2.42,2.52317 -0.18,-0.77404 -1.61,0.31162 0.89,1.1862 -0.83,1.18619 -1.19,0.0804 0.52,-1.82955 -1.39,-0.69362 -1.31,3.36758 -2.48,-0.8243 -1.49,1.04546 -0.01,1.97028 -1.51,-0.83435 -3.55,1.14598 -1.57,2.95542 2.2,3.82999 -0.83,0.27142 0.36,2.6438 -1.75,0.73383 0.26,1.69887 -2.58,3.0057 -4.09,-1.0153 -0.54,1.31687 -3.91,0.33173 -1.53,2.05071 0.85,1.35708 -1.38,2.94537 -9.02,-0.0502 -13.31,2.2417 -2.09,1.65866 -2.73,-0.25131 -4.69,3.99082 -3.46,0.73384 -1.27,3.60884 -3.45,4.30246 0,0 -1.17,-0.54284 -0.2,-1.4375 0.76,-5.93096 0.89,-3.64905 2.89,-4.8855 7.39,-4.87546 1.85,-5.75001 4.39,-4.52361 1.31,0.20104 1.15,-2.60359 2.08,-0.49257 -0.77,-1.74913 0.52,-5.23734 -5.91,-8.23298 0,0 6.05,-6.37327 4.99,2.6237 4.52,-0.1508 3.03,1.08568 3.92,-1.77929 0.87,-2.63375 1.31,-0.86452 -0.13,1.29677 1.2,0.74389 2.98,-3.31732 1.08,0.2312 -1.65,2.10097 1.8,1.76924 8.14,-1.21635 1.46,0.66346 -0.12,2.76444 5.07,-0.74389 1.64,-3.639 1.13,0.26137 -0.01,-2.95542 4.23,-2.03061 -0.84,-3.98078 2.99,-1.74913 2.75,0.15079 2.47,-1.2063 -0.03,-3.94057 3.46,-6.97642 0,0 3.76,-4.00088 z m 15.1,0.29151 -1.6,1.58829 -0.99,-0.8444 0.58,-1.04546 2.01,0.30157 z m 0.15,-3.14642 -0.81,2.32212 -0.5,-1.95018 1.31,-0.37194 z" />
</svg>